<svg width="29" height="29" viewBox="0 0 29 29" fill="none" xmlns="http://www.w3.org/2000/svg">
<g clip-path="url(#clip0)">
<path d="M27.2839 1.71627C27.2669 1.69928 27.2669 1.69928 27.2498 1.68223C25.007 -0.560742 21.0987 -0.560742 18.8558 1.68223L10.3314 10.2066C8.00347 12.5346 8.00347 16.3068 10.3314 18.6178C10.3484 18.6347 10.3484 18.6347 10.3653 18.6347C11.5209 19.7901 13.0161 20.3509 14.5284 20.3509C16.0578 20.3509 17.5701 19.7732 18.7425 18.6177L27.2498 10.0933C28.3884 8.97188 29.0001 7.47651 29.0001 5.89629C29.0001 4.31607 28.4054 2.8377 27.2839 1.71627ZM24.854 7.69746L16.3296 16.2219C15.8539 16.6977 15.2082 16.9525 14.5284 16.9525C13.8657 16.9525 13.237 16.7146 12.7613 16.2389C12.7443 16.2389 12.7443 16.2389 12.7272 16.2219C11.7416 15.2194 11.7248 13.6052 12.7272 12.6196L21.2517 4.09517C21.6935 3.65338 22.3392 3.39855 23.0528 3.39855C23.7665 3.39855 24.4122 3.65338 24.854 4.07818C24.871 4.09517 24.871 4.09517 24.888 4.11222C25.3638 4.60483 25.6017 5.21666 25.6017 5.89629C25.6017 6.57598 25.3468 7.20469 24.854 7.69746Z" fill="#EEADA2"/>
<path d="M23.9676 25.1062C23.7502 25.1062 23.5328 25.0232 23.3669 24.8573L20.9632 22.4545C20.6314 22.1226 20.6314 21.5849 20.9632 21.2531C21.2951 20.9212 21.8328 20.9212 22.1647 21.2531L24.5683 23.6559C24.9002 23.9877 24.9002 24.5254 24.5683 24.8573C24.4024 25.0232 24.185 25.1062 23.9676 25.1062Z" fill="#646464"/>
<path d="M26.3703 20.3007C26.2815 20.3007 26.1911 20.2866 26.1014 20.2567L22.4972 19.0545C22.0525 18.9059 21.8119 18.4247 21.9604 17.98C22.1081 17.5352 22.5851 17.293 23.0349 17.4431L26.6391 18.6454C27.0838 18.7939 27.3244 19.2751 27.1759 19.7199C27.0573 20.0758 26.7262 20.3007 26.3703 20.3007Z" fill="#646464"/>
<path d="M19.1611 27.5099C18.8051 27.5099 18.4741 27.285 18.3554 26.9291L17.154 23.3241C17.0055 22.8786 17.2461 22.3973 17.6908 22.2496C18.1381 22.102 18.6168 22.3417 18.7653 22.7865L19.9667 26.3915C20.1152 26.837 19.8746 27.3182 19.4299 27.4659C19.3403 27.4958 19.2499 27.5099 19.1611 27.5099Z" fill="#646464"/>
<path d="M7.14629 8.28499C6.9289 8.28499 6.71152 8.20202 6.54562 8.03606L4.14196 5.63325C3.8101 5.30139 3.8101 4.7637 4.14196 4.43185C4.47387 4.09999 5.01151 4.09999 5.34342 4.43185L7.74708 6.83465C8.07894 7.16651 8.07894 7.7042 7.74708 8.03606C7.58106 8.20202 7.36368 8.28499 7.14629 8.28499Z" fill="#646464"/>
<path d="M10.7504 7.0836C10.3945 7.0836 10.0634 6.85874 9.94476 6.50281L8.74336 2.89781C8.59484 2.45227 8.83545 1.97105 9.28019 1.82333C9.72986 1.67397 10.2069 1.91543 10.3547 2.36017L11.5561 5.96518C11.7046 6.41071 11.464 6.89193 11.0192 7.03965C10.9296 7.0695 10.8392 7.0836 10.7504 7.0836Z" fill="#646464"/>
<path d="M5.944 11.89C5.85524 11.89 5.76479 11.8759 5.67518 11.8461L2.07097 10.6438C1.62622 10.4953 1.38562 10.0141 1.53413 9.56933C1.68264 9.12459 2.16137 8.88483 2.6086 9.03249L6.21281 10.2347C6.65756 10.3833 6.89816 10.8645 6.74965 11.3092C6.63099 11.6652 6.29993 11.89 5.944 11.89Z" fill="#646464"/>
<path d="M18.5555 10.4445C16.3125 8.18457 12.3873 8.18457 10.1443 10.4445L1.73325 18.8556C-0.577748 21.1666 -0.577748 24.9389 1.73325 27.2667C2.90571 28.4223 4.41795 29 5.94725 29C7.45955 29 8.9888 28.4222 10.1443 27.2667L18.5554 18.8556C19.6769 17.7342 20.3056 16.2389 20.3056 14.6416C20.3057 13.0613 19.677 11.566 18.5555 10.4445ZM16.1596 16.4428L7.74842 24.8539C7.2727 25.3296 6.62699 25.6016 5.94725 25.6016C5.26751 25.6016 4.6218 25.3296 4.14608 24.8539C3.14348 23.8683 3.14348 22.254 4.14608 21.2516L12.5572 12.8404C12.999 12.3986 13.6447 12.1607 14.3584 12.1607C15.055 12.1607 15.7178 12.3986 16.1596 12.8404C16.6523 13.3331 16.9072 13.9619 16.9072 14.6416C16.9073 15.3382 16.6523 15.9501 16.1596 16.4428Z" fill="#FFD5FA"/>
<path d="M20.3056 14.6416C20.3056 16.2389 19.6769 17.7342 18.5554 18.8556L10.1442 27.2668C8.98876 28.4222 7.45952 29 5.94716 29C4.41786 29 2.90562 28.4222 1.73315 27.2668L4.14604 24.8539C4.62177 25.3296 5.26747 25.6015 5.94716 25.6015C6.62685 25.6015 7.27261 25.3296 7.74833 24.8539L16.1595 16.4428C16.6522 15.95 16.9071 15.3382 16.9071 14.6416C16.9071 13.9618 16.6522 13.3331 16.1595 12.8404L18.5553 10.4445C19.6769 11.566 20.3056 13.0613 20.3056 14.6416Z" fill="#888ED3"/>
<path d="M29 5.89627C29 7.47654 28.3883 8.97186 27.2497 10.0934L18.7424 18.6178C17.57 19.7733 16.0576 20.351 14.5283 20.351C13.016 20.351 11.5208 19.7902 10.3652 18.6347L12.7612 16.2389C13.2369 16.7146 13.8656 16.9525 14.5283 16.9525C15.2081 16.9525 15.8538 16.6977 16.3295 16.2219L24.8539 7.69744C25.3467 7.20467 25.6016 6.57596 25.6016 5.89627C25.6016 5.21664 25.3637 4.60486 24.8879 4.11209L27.2838 1.71625C28.4053 2.83768 29 4.316 29 5.89627Z" fill="#4F72BD"/>
</g>
<defs>
<clipPath id="clip0">
<rect width="29" height="29" fill="white"/>
</clipPath>
</defs>
</svg>
